<svg width="200" height="60" viewBox="0 0 200 60" fill="none" xmlns="http://www.w3.org/2000/svg">
  <!-- Briefcase Icon -->
  <path d="M15 15H35V25C35 27.7614 32.7614 30 30 30H20C17.2386 30 15 27.7614 15 25V15Z" fill="#2563EB"/>
  <path d="M10 20H40V35C40 37.7614 37.7614 40 35 40H15C12.2386 40 10 37.7614 10 35V20Z" fill="#2563EB"/>
  <path d="M20 15V10C20 8.89543 20.8954 8 22 8H28C29.1046 8 30 8.89543 30 10V15" stroke="black" stroke-width="2"/>
  
  <!-- Checkmark Icon -->
  <path d="M45 25L50 30L60 20" stroke="white" stroke-width="2" stroke-linecap="round" stroke-linejoin="round"/>
  
  <!-- App Name "NextRole" -->
  <text x="70" y="35" font-family="Arial, sans-serif" font-size="24" fill="#2563EB" font-weight="bold">NextRole</text>
</svg>